HIERARCHY
ROOT mixamorig:Hips
{
	OFFSET 0.000000 106.130402 -0.000000
	CHANNELS 6 Xposition Yposition Zposition Xrotation Yrotation Zrotation
	JOINT mixamorig:Spine
	{
		OFFSET -0.038117 9.490501 -1.392100
		CHANNELS 6 Xposition Yposition Zposition Xrotation Yrotation Zrotation
		JOINT mixamorig:Spine1
		{
			OFFSET -0.044226 11.072235 -1.624061
			CHANNELS 3 Xrotation Yrotation Zrotation
			JOINT mixamorig:Spine2
			{
				OFFSET -0.050544 12.653999 -1.856072
				CHANNELS 3 Xrotation Yrotation Zrotation
				JOINT mixamorig:Neck
				{
					OFFSET -0.056883 14.235809 -2.088087
					CHANNELS 6 Xposition Yposition Zposition Xrotation Yrotation Zrotation
					JOINT mixamorig:Head
					{
						OFFSET 0.000004 3.280197 0.313303
						CHANNELS 6 Xposition Yposition Zposition Xrotation Yrotation Zrotation
						JOINT mixamorig:HeadTop_End
						{
							OFFSET 0.000030 25.653503 2.450522
							CHANNELS 6 Xposition Yposition Zposition Xrotation Yrotation Zrotation
							End Site
							{
								OFFSET 0.000031 25.770279 0.000023
							}
						}
					}
				}
				JOINT mixamorig:LeftShoulder
				{
					OFFSET 6.728814 11.756592 -2.058488
					CHANNELS 6 Xposition Yposition Zposition Xrotation Yrotation Zrotation
					JOINT mixamorig:LeftArm
					{
						OFFSET 14.094160 -3.181030 0.059262
						CHANNELS 3 Xrotation Yrotation Zrotation
						JOINT mixamorig:LeftForeArm
						{
							OFFSET 23.160299 0.000000 0.000000
							CHANNELS 3 Xrotation Yrotation Zrotation
							JOINT mixamorig:LeftHand
							{
								OFFSET 24.071800 0.000000 0.000000
								CHANNELS 3 Xrotation Yrotation Zrotation
								JOINT mixamorig:LeftHandThumb1
								{
									OFFSET 4.173401 -1.926498 1.509006
									CHANNELS 6 Xposition Yposition Zposition Xrotation Yrotation Zrotation
									JOINT mixamorig:LeftHandThumb2
									{
										OFFSET 2.998001 -1.730896 1.730896
										CHANNELS 3 Xrotation Yrotation Zrotation
										JOINT mixamorig:LeftHandThumb3
										{
											OFFSET 3.648811 -2.106644 2.106645
											CHANNELS 3 Xrotation Yrotation Zrotation
											JOINT mixamorig:LeftHandThumb4
											{
												OFFSET 2.967018 -1.712997 1.713007
												CHANNELS 3 Xrotation Yrotation Zrotation
												End Site
												{
													OFFSET 2.967010 -1.713013 1.713006
												}
											}
										}
									}
								}
								JOINT mixamorig:LeftHandIndex1
								{
									OFFSET 14.669403 -0.398788 2.855501
									CHANNELS 6 Xposition Yposition Zposition Xrotation Yrotation Zrotation
									JOINT mixamorig:LeftHandIndex2
									{
										OFFSET 3.248596 0.000000 0.000000
										CHANNELS 3 Xrotation Yrotation Zrotation
										JOINT mixamorig:LeftHandIndex3
										{
											OFFSET 2.659599 0.000000 0.000000
											CHANNELS 3 Xrotation Yrotation Zrotation
											JOINT mixamorig:LeftHandIndex4
											{
												OFFSET 3.633202 0.000000 0.000000
												CHANNELS 3 Xrotation Yrotation Zrotation
												End Site
												{
													OFFSET 3.633194 0.000000 0.000000
												}
											}
										}
									}
								}
								JOINT mixamorig:LeftHandMiddle1
								{
									OFFSET 14.409798 0.000000 0.000000
									CHANNELS 6 Xposition Yposition Zposition Xrotation Yrotation Zrotation
									JOINT mixamorig:LeftHandMiddle2
									{
										OFFSET 3.259102 0.000000 0.000000
										CHANNELS 3 Xrotation Yrotation Zrotation
										JOINT mixamorig:LeftHandMiddle3
										{
											OFFSET 2.639900 0.000000 0.000000
											CHANNELS 3 Xrotation Yrotation Zrotation
											JOINT mixamorig:LeftHandMiddle4
											{
												OFFSET 3.673904 0.000000 0.000000
												CHANNELS 3 Xrotation Yrotation Zrotation
												End Site
												{
													OFFSET 3.673904 0.000000 0.000000
												}
											}
										}
									}
								}
								JOINT mixamorig:LeftHandRing1
								{
									OFFSET 13.191498 0.321991 -3.304901
									CHANNELS 6 Xposition Yposition Zposition Xrotation Yrotation Zrotation
									JOINT mixamorig:LeftHandRing2
									{
										OFFSET 2.717606 0.000000 0.000000
										CHANNELS 3 Xrotation Yrotation Zrotation
										JOINT mixamorig:LeftHandRing3
										{
											OFFSET 2.134499 0.000000 0.000000
											CHANNELS 3 Xrotation Yrotation Zrotation
											JOINT mixamorig:LeftHandRing4
											{
												OFFSET 2.786896 0.000000 0.000000
												CHANNELS 3 Xrotation Yrotation Zrotation
												End Site
												{
													OFFSET 2.786896 0.000000 0.000000
												}
											}
										}
									}
								}
								JOINT mixamorig:LeftHandPinky1
								{
									OFFSET 11.636398 -0.516617 -5.614198
									CHANNELS 6 Xposition Yposition Zposition Xrotation Yrotation Zrotation
									JOINT mixamorig:LeftHandPinky2
									{
										OFFSET 1.559402 0.000000 0.000000
										CHANNELS 3 Xrotation Yrotation Zrotation
										JOINT mixamorig:LeftHandPinky3
										{
											OFFSET 1.540604 0.000000 0.000000
											CHANNELS 3 Xrotation Yrotation Zrotation
											JOINT mixamorig:LeftHandPinky4
											{
												OFFSET 1.668694 0.000000 0.000000
												CHANNELS 3 Xrotation Yrotation Zrotation
												End Site
												{
													OFFSET 1.668701 0.000000 0.000000
												}
											}
										}
									}
								}
							}
						}
					}
				}
				JOINT mixamorig:RightShoulder
				{
					OFFSET -6.728786 11.756714 -2.058491
					CHANNELS 6 Xposition Yposition Zposition Xrotation Yrotation Zrotation
					JOINT mixamorig:RightArm
					{
						OFFSET -14.094133 -3.181152 0.059256
						CHANNELS 3 Xrotation Yrotation Zrotation
						JOINT mixamorig:RightForeArm
						{
							OFFSET -23.160299 0.000000 0.000000
							CHANNELS 3 Xrotation Yrotation Zrotation
							JOINT mixamorig:RightHand
							{
								OFFSET -24.071701 0.000000 0.000000
								CHANNELS 3 Xrotation Yrotation Zrotation
								JOINT mixamorig:RightHandThumb1
								{
									OFFSET -4.173401 -1.930939 1.503952
									CHANNELS 6 Xposition Yposition Zposition Xrotation Yrotation Zrotation
									JOINT mixamorig:RightHandThumb2
									{
										OFFSET -2.998001 -1.730896 1.730896
										CHANNELS 3 Xrotation Yrotation Zrotation
										JOINT mixamorig:RightHandThumb3
										{
											OFFSET -3.648582 -2.106506 2.106510
											CHANNELS 3 Xrotation Yrotation Zrotation
											JOINT mixamorig:RightHandThumb4
											{
												OFFSET -2.967010 -1.713013 1.713007
												CHANNELS 3 Xrotation Yrotation Zrotation
												End Site
												{
													OFFSET -2.967010 -1.713013 1.713006
												}
											}
										}
									}
								}
								JOINT mixamorig:RightHandIndex1
								{
									OFFSET -14.669403 -0.406464 2.854446
									CHANNELS 6 Xposition Yposition Zposition Xrotation Yrotation Zrotation
									JOINT mixamorig:RightHandIndex2
									{
										OFFSET -3.248596 0.000000 0.000000
										CHANNELS 3 Xrotation Yrotation Zrotation
										JOINT mixamorig:RightHandIndex3
										{
											OFFSET -2.659599 0.000000 0.000000
											CHANNELS 3 Xrotation Yrotation Zrotation
											JOINT mixamorig:RightHandIndex4
											{
												OFFSET -3.633102 0.000000 0.000000
												CHANNELS 3 Xrotation Yrotation Zrotation
												End Site
												{
													OFFSET -3.633102 0.000000 0.000000
												}
											}
										}
									}
								}
								JOINT mixamorig:RightHandMiddle1
								{
									OFFSET -14.409798 0.000000 0.000000
									CHANNELS 6 Xposition Yposition Zposition Xrotation Yrotation Zrotation
									JOINT mixamorig:RightHandMiddle2
									{
										OFFSET -3.259102 0.000000 0.000000
										CHANNELS 3 Xrotation Yrotation Zrotation
										JOINT mixamorig:RightHandMiddle3
										{
											OFFSET -2.639801 0.000000 0.000000
											CHANNELS 3 Xrotation Yrotation Zrotation
											JOINT mixamorig:RightHandMiddle4
											{
												OFFSET -3.673897 0.000000 0.000000
												CHANNELS 3 Xrotation Yrotation Zrotation
												End Site
												{
													OFFSET -3.673904 0.000000 0.000000
												}
											}
										}
									}
								}
								JOINT mixamorig:RightHandRing1
								{
									OFFSET -13.191498 0.330658 -3.304046
									CHANNELS 6 Xposition Yposition Zposition Xrotation Yrotation Zrotation
									JOINT mixamorig:RightHandRing2
									{
										OFFSET -2.717606 0.000000 0.000000
										CHANNELS 3 Xrotation Yrotation Zrotation
										JOINT mixamorig:RightHandRing3
										{
											OFFSET -2.134499 0.000000 0.000000
											CHANNELS 3 Xrotation Yrotation Zrotation
											JOINT mixamorig:RightHandRing4
											{
												OFFSET -2.786797 0.000000 0.000000
												CHANNELS 3 Xrotation Yrotation Zrotation
												End Site
												{
													OFFSET -2.786804 0.000000 0.000000
												}
											}
										}
									}
								}
								JOINT mixamorig:RightHandPinky1
								{
									OFFSET -11.636398 -0.501495 -5.923333
									CHANNELS 6 Xposition Yposition Zposition Xrotation Yrotation Zrotation
									JOINT mixamorig:RightHandPinky2
									{
										OFFSET -1.559303 0.000000 0.000000
										CHANNELS 3 Xrotation Yrotation Zrotation
										JOINT mixamorig:RightHandPinky3
										{
											OFFSET -1.540596 0.000000 0.000000
											CHANNELS 3 Xrotation Yrotation Zrotation
											JOINT mixamorig:RightHandPinky4
											{
												OFFSET -1.668701 0.000000 0.000000
												CHANNELS 3 Xrotation Yrotation Zrotation
												End Site
												{
													OFFSET -1.668701 0.000000 0.000000
												}
											}
										}
									}
								}
							}
						}
					}
				}
			}
		}
	}
	JOINT mixamorig:RightUpLeg
	{
		OFFSET -9.940990 -5.272415 -1.010900
		CHANNELS 6 Xposition Yposition Zposition Xrotation Yrotation Zrotation
		JOINT mixamorig:RightLeg
		{
			OFFSET 0.000000 -43.345264 1.301677
			CHANNELS 3 Xrotation Yrotation Zrotation
			JOINT mixamorig:RightFoot
			{
				OFFSET 0.000000 -44.296967 -4.172008
				CHANNELS 3 Xrotation Yrotation Zrotation
				JOINT mixamorig:RightToeBase
				{
					OFFSET -2.597178 -13.215245 14.785532
					CHANNELS 3 Xrotation Yrotation Zrotation
					JOINT mixamorig:RightToe_End
					{
						OFFSET -1.307599 0.027390 9.914103
						CHANNELS 3 Xrotation Yrotation Zrotation
						End Site
						{
							OFFSET -1.307599 0.027390 9.914103
						}
					}
				}
			}
		}
	}
	JOINT mixamorig:LeftUpLeg
	{
		OFFSET 9.618309 -5.272285 -1.010900
		CHANNELS 6 Xposition Yposition Zposition Xrotation Yrotation Zrotation
		JOINT mixamorig:LeftLeg
		{
			OFFSET 0.000000 -43.345459 1.301683
			CHANNELS 3 Xrotation Yrotation Zrotation
			JOINT mixamorig:LeftFoot
			{
				OFFSET 0.000000 -44.296967 -4.172008
				CHANNELS 3 Xrotation Yrotation Zrotation
				JOINT mixamorig:LeftToeBase
				{
					OFFSET 2.597218 -13.215261 14.785510
					CHANNELS 3 Xrotation Yrotation Zrotation
					JOINT mixamorig:LeftToe_End
					{
						OFFSET 1.307524 0.027409 9.914113
						CHANNELS 3 Xrotation Yrotation Zrotation
						End Site
						{
							OFFSET 1.307524 0.027409 9.914112
						}
					}
				}
			}
		}
	}
}
MOTION
Frames: 4
Frame Time: 0.033333
0.069134 94.335495 1.236759 18.794988 -13.729986 -0.353067 -0.038117 9.490506 -1.392100 5.955223 6.852608 1.375788 4.023126 2.640848 -0.073799 4.023210 2.634770 0.054221 -0.056882 14.235801 -2.088095 -6.245257 0.291346 0.360717 0.000004 3.280219 0.313310 -16.862624 2.760571 -0.811211 0.000032 25.653519 2.450520 -0.000000 -0.000000 -0.000000 6.728819 11.756579 -2.058494 0.305189 -13.066443 -13.100157 42.800469 -21.749221 -55.743547 -0.000020 -37.342724 -0.000041 -31.577170 -0.843318 -0.197212 4.173398 -1.926501 1.509005 -0.868000 1.559990 6.151898 11.980292 22.666452 4.033104 -8.762428 15.171378 12.293021 -0.000000 0.000001 0.000005 14.669420 -0.398778 2.855499 2.589217 5.864778 -84.173578 2.891928 5.049878 -59.575669 1.997197 4.405892 -48.752739 -0.000001 0.000003 0.000002 14.409803 0.000001 -0.000005 3.048035 7.991419 -85.410990 2.908909 5.059773 -59.768574 1.994052 4.403147 -48.711755 0.000001 0.000003 0.000003 13.191509 0.322001 -3.304904 3.396965 8.008819 -85.135685 3.004572 5.114104 -60.847457 1.915177 4.332812 -47.676196 0.000001 0.000003 -0.000000 11.636415 -0.516626 -5.614208 12.559575 17.798223 -104.586281 3.018927 5.122051 -61.008281 2.000578 4.408865 -48.796763 -0.000000 -0.000000 0.000003 -6.728781 11.756715 -2.058497 1.238899 23.426046 6.080389 -31.793100 8.744455 66.568164 -0.000148 71.933920 0.000174 -22.934781 20.811067 -4.394491 -4.173398 -1.930950 1.503945 -1.752806 4.347756 -7.303315 12.280931 -24.605745 -4.500358 -8.273032 -12.876712 -11.679374 0.000002 0.000005 0.000001 -14.669435 -0.406451 2.854448 2.472235 -4.676210 83.429859 2.304051 -4.020100 59.623556 1.591874 -3.507858 48.807145 -0.000001 0.000000 0.000002 -14.409807 0.000004 -0.000004 1.874646 -6.690906 84.666096 2.317569 -4.027987 59.816256 1.589373 -3.505670 48.766260 -0.000001 0.000000 0.000000 -13.191502 0.330658 -3.304043 6.472215 -6.950648 89.424894 2.394047 -4.071397 60.899087 1.526567 -3.449704 47.730684 0.000000 0.000001 -0.000001 -11.636413 -0.501499 -5.923337 11.576131 -16.427042 95.466988 2.405081 -4.077528 61.054801 1.594583 -3.510201 48.851159 0.000000 -0.000001 -0.000005 -9.940994 -5.272381 -1.010906 -15.058183 -7.011938 5.764350 35.755757 6.148033 0.939538 -29.745675 8.842418 -6.519734 -14.117572 -0.000001 -0.000003 0.000000 0.000002 0.000000 9.618305 -5.272268 -1.010908 -73.427600 3.283407 17.853322 121.036853 6.948667 0.429964 41.759415 2.184822 4.752019 -1.977028 -0.000004 0.000001 0.000000 -0.000002 0.000001 
0.379113 93.985260 20.276232 19.162466 -11.496142 5.723979 -0.038117 9.490503 -1.392102 5.677339 10.462011 -4.443714 3.892396 3.796853 -1.285174 3.925094 3.803739 -1.036421 -0.056884 14.235804 -2.088090 -3.939726 -0.886746 -1.685219 0.000005 3.280179 0.313296 -13.021466 -6.676105 0.624400 0.000030 25.653519 2.450528 -0.000000 -0.000000 0.000000 6.728810 11.756598 -2.058493 1.398810 -14.276041 -3.937594 58.999768 -21.226263 -54.837328 -0.000038 -55.247819 -0.000083 -36.167013 6.712221 -2.558786 4.173398 -1.926488 1.508996 -0.867998 1.559989 6.151897 11.980294 22.666452 4.033108 -8.762423 15.171372 12.293019 -0.000001 0.000003 0.000003 14.669417 -0.398792 2.855486 2.589220 5.864779 -84.173578 2.891931 5.049878 -59.575669 1.997193 4.405891 -48.752743 0.000003 0.000003 0.000002 14.409818 0.000010 -0.000015 3.048037 7.991417 -85.410990 2.908908 5.059774 -59.768574 1.994050 4.403146 -48.711755 0.000002 -0.000000 -0.000001 13.191509 0.322014 -3.304916 3.396965 8.008817 -85.135685 3.004575 5.114102 -60.847457 1.915175 4.332815 -47.676196 -0.000001 -0.000000 0.000000 11.636429 -0.516606 -5.614216 12.559576 17.798225 -104.586281 3.018926 5.122047 -61.008274 2.000578 4.408860 -48.796767 -0.000000 0.000002 -0.000000 -6.728788 11.756725 -2.058499 3.476826 22.876003 -6.241825 -44.110909 9.824133 72.447482 -0.001359 87.243482 0.001248 -31.652558 37.240985 -4.734285 -4.173397 -1.930951 1.503954 -1.752804 4.347750 -7.303313 12.280931 -24.605736 -4.500357 -8.273038 -12.876710 -11.679372 -0.000002 -0.000001 0.000000 -14.669418 -0.406453 2.854452 2.472235 -4.676210 83.429859 2.304047 -4.020100 59.623563 1.591872 -3.507859 48.807132 0.000002 0.000000 -0.000001 -14.409804 -0.000001 0.000003 1.874648 -6.690905 84.666096 2.317569 -4.027989 59.816249 1.589369 -3.505669 48.766260 -0.000001 -0.000001 0.000001 -13.191504 0.330667 -3.304047 6.472214 -6.950647 89.424894 2.394049 -4.071395 60.899073 1.526571 -3.449705 47.730684 -0.000001 0.000003 -0.000002 -11.636412 -0.501494 -5.923335 11.576133 -16.427042 95.466988 2.405080 -4.077527 61.054801 1.594582 -3.510200 48.851159 -0.000001 0.000002 0.000003 -9.940989 -5.272384 -1.010899 2.921708 -13.050118 -4.337919 17.522869 2.178316 1.172632 -22.331201 15.208335 0.414239 -27.166782 0.000002 0.000001 -0.000000 0.000002 0.000000 9.618307 -5.272267 -1.010919 -84.052977 3.805191 9.163137 107.574079 9.136951 0.543886 30.192599 2.349405 1.866963 2.771937 0.000002 -0.000001 0.000000 0.000001 -0.000000 
-0.144955 93.442711 38.037231 19.011733 -4.715649 13.520394 -0.038111 9.490507 -1.392101 7.826285 12.220500 -13.405864 4.545403 4.298401 -2.267768 4.593636 4.379246 -1.915325 -0.056882 14.235798 -2.088094 -0.974382 -2.475647 -2.402116 -0.000001 3.280195 0.313296 -11.701207 -16.578037 4.152584 0.000030 25.653488 2.450515 -0.000000 -0.000000 0.000000 6.728817 11.756598 -2.058494 2.735647 -19.624081 3.247885 64.857058 -14.097587 -52.944358 -0.000021 -68.331132 -0.000062 -43.452171 2.094582 -0.178261 4.173398 -1.926506 1.508996 -0.867998 1.559990 6.151899 11.980295 22.666449 4.033104 -8.762427 15.171380 12.293022 -0.000001 -0.000001 0.000003 14.669419 -0.398792 2.855496 2.589218 5.864779 -84.173578 2.891933 5.049874 -59.575669 1.997194 4.405890 -48.752736 -0.000001 -0.000002 0.000001 14.409820 0.000009 -0.000010 3.048034 7.991417 -85.410990 2.908909 5.059775 -59.768574 1.994052 4.403146 -48.711758 -0.000001 0.000002 0.000002 13.191511 0.321999 -3.304911 3.396963 8.008820 -85.135699 3.004573 5.114104 -60.847457 1.915174 4.332809 -47.676192 -0.000000 -0.000000 0.000002 11.636418 -0.516622 -5.614209 12.559576 17.798223 -104.586281 3.018924 5.122045 -61.008274 2.000578 4.408867 -48.796763 -0.000002 0.000000 -0.000000 -6.728784 11.756721 -2.058498 0.789109 17.562064 -5.613537 -47.904792 14.518747 63.974748 0.000259 106.906196 -0.000137 -28.286470 47.763503 -8.651291 -4.173405 -1.930946 1.503949 -1.752805 4.347752 -7.303312 12.280937 -24.605743 -4.500360 -8.273032 -12.876714 -11.679373 -0.000002 0.000001 0.000002 -14.669418 -0.406455 2.854447 2.472236 -4.676211 83.429859 2.304052 -4.020101 59.623563 1.591873 -3.507862 48.807149 0.000003 -0.000000 -0.000000 -14.409812 0.000011 -0.000000 1.874650 -6.690908 84.666096 2.317568 -4.027988 59.816249 1.589372 -3.505665 48.766256 0.000003 -0.000001 -0.000001 -13.191518 0.330662 -3.304047 6.472216 -6.950647 89.424894 2.394045 -4.071398 60.899073 1.526569 -3.449704 47.730684 0.000001 0.000001 0.000000 -11.636427 -0.501485 -5.923337 11.576133 -16.427044 95.466988 2.405082 -4.077531 61.054801 1.594585 -3.510203 48.851159 0.000001 -0.000000 -0.000000 -9.940984 -5.272408 -1.010907 9.966569 -18.536054 -11.888036 10.976742 0.639663 0.641051 7.671178 7.291455 -1.042373 -48.165230 -0.928865 2.739210 -0.000000 -0.000002 0.000000 9.618311 -5.272282 -1.010906 -87.480851 7.371527 -5.244054 84.220645 9.606695 0.630118 19.433019 6.320818 -0.373341 6.909500 0.000007 0.000002 0.000001 -0.000000 -0.000000 
-0.886238 95.394493 56.549538 19.706061 0.118702 11.951759 -0.038117 9.490499 -1.392100 7.411763 12.173291 -13.497291 4.141087 4.169988 -2.351114 4.142862 4.284916 -2.096838 -0.056880 14.235803 -2.088088 1.490397 -3.297050 -1.186104 0.000003 3.280168 0.313306 -12.568439 -19.776237 5.904811 0.000030 25.653473 2.450516 0.000002 0.000000 0.000000 6.728818 11.756618 -2.058490 2.553777 -19.843892 2.327001 55.820073 -6.475772 -53.695980 -0.000108 -66.117187 -0.000131 -45.376813 -2.068220 4.488148 4.173409 -1.926490 1.509002 -0.868000 1.559986 6.151897 11.980292 22.666451 4.033104 -8.762426 15.171373 12.293021 0.000001 -0.000003 0.000001 14.669435 -0.398789 2.855494 2.589217 5.864777 -84.173578 2.891929 5.049874 -59.575669 1.997194 4.405891 -48.752733 0.000000 -0.000001 0.000000 14.409820 0.000009 -0.000008 3.048032 7.991419 -85.410990 2.908911 5.059776 -59.768574 1.994051 4.403145 -48.711758 -0.000000 0.000000 0.000000 13.191510 0.321993 -3.304904 3.396962 8.008812 -85.135685 3.004573 5.114103 -60.847457 1.915177 4.332811 -47.676196 0.000000 0.000001 -0.000001 11.636417 -0.516622 -5.614208 12.559575 17.798223 -104.586281 3.018925 5.122045 -61.008261 2.000577 4.408860 -48.796767 0.000000 0.000000 0.000000 -6.728778 11.756737 -2.058488 0.501009 14.847586 -5.051278 -40.199519 12.633795 59.450165 0.000185 120.273785 -0.000078 -13.734483 44.146036 -20.903871 -4.173428 -1.930950 1.503963 -1.752809 4.347752 -7.303313 12.280938 -24.605746 -4.500358 -8.273031 -12.876717 -11.679373 0.000002 0.000000 -0.000003 -14.669434 -0.406455 2.854456 2.472233 -4.676211 83.429859 2.304052 -4.020103 59.623563 1.591873 -3.507858 48.807132 -0.000002 -0.000000 -0.000000 -14.409840 0.000014 0.000005 1.874646 -6.690907 84.666096 2.317568 -4.027982 59.816256 1.589374 -3.505671 48.766256 0.000001 0.000000 0.000000 -13.191532 0.330659 -3.304043 6.472214 -6.950648 89.424894 2.394045 -4.071396 60.899066 1.526567 -3.449703 47.730684 0.000002 0.000001 0.000001 -11.636442 -0.501493 -5.923330 11.576134 -16.427044 95.466988 2.405082 -4.077535 61.054801 1.594585 -3.510200 48.851159 -0.000000 0.000001 -0.000001 -9.940991 -5.272412 -1.010892 19.441234 -13.885845 -5.054172 6.105495 -5.808162 -0.415874 36.764832 1.161768 -0.737597 -5.212834 -0.000003 0.000000 -0.000000 -0.000000 -0.000001 9.618309 -5.272294 -1.010902 -79.573165 6.100491 -10.494428 54.288014 9.752734 0.160040 12.359372 1.081650 -1.105475 6.709550 -0.000000 -0.000001 -0.000001 -0.000000 -0.000000 
